<svg xmlns="http://www.w3.org/2000/svg" xmlns:xlink="http://www.w3.org/1999/xlink" width="472" height="140" viewBox="0 0 472 140">
  <defs>
    <clipPath id="clip-logo_P-SOFT">
      <rect width="472" height="140"/>
    </clipPath>
  </defs>
  <g id="logo_P-SOFT" data-name="logo P-SOFT" clip-path="url(#clip-logo_P-SOFT)">
    <path id="Path_2" data-name="Path 2" d="M4.228-27.25l16.453-1.6q1.485,8.284,6.027,12.168T38.962-12.8q8.169,0,12.311-3.456a10.283,10.283,0,0,0,4.142-8.084,7.624,7.624,0,0,0-1.742-5.056q-1.742-2.085-6.084-3.628-2.971-1.028-13.54-3.656-13.6-3.371-19.081-8.284A21.792,21.792,0,0,1,7.255-61.813a21.529,21.529,0,0,1,3.628-11.969,22.713,22.713,0,0,1,10.455-8.484,41.9,41.9,0,0,1,16.482-2.914q15.768,0,23.737,6.913t8.369,18.453l-16.91.743q-1.085-6.456-4.656-9.283T37.648-71.183q-7.37,0-11.54,3.028a6.1,6.1,0,0,0-2.685,5.2,6.433,6.433,0,0,0,2.514,5.084q3.2,2.685,15.539,5.6t18.253,6.027a23.524,23.524,0,0,1,9.255,8.512,24.9,24.9,0,0,1,3.342,13.34,24.664,24.664,0,0,1-4,13.482A23.966,23.966,0,0,1,57.015-1.571Q49.7,1.485,38.791,1.485q-15.882,0-24.394-7.341T4.228-27.25Zm78.9-14.111q0-12.8,3.828-21.48a39.416,39.416,0,0,1,7.8-11.483,32.606,32.606,0,0,1,10.826-7.541,45.979,45.979,0,0,1,18.053-3.313q18.51,0,29.621,11.483T164.36-41.761q0,20.281-11.026,31.735T123.855,1.428q-18.681,0-29.707-11.4T83.123-41.361Zm17.424-.571q0,14.225,6.57,21.566A21.406,21.406,0,0,0,123.8-13.025a21.221,21.221,0,0,0,16.6-7.284q6.484-7.284,6.484-21.852,0-14.4-6.313-21.48T123.8-70.726q-10.455,0-16.853,7.17T100.547-41.933ZM177.671,0V-83.751h57.415v14.168h-40.5v19.824h34.963v14.168H194.581V0Zm90.207,0V-69.583H243.026V-83.751h66.555v14.168H284.788V0Z" transform="translate(158 111.179)" fill="#fff"/>
    <path id="Subtraction_1" data-name="Subtraction 1" d="M139.5,139.5H.5V.5h139v139ZM44.6,34a3.786,3.786,0,0,0-2.747.849A3.788,3.788,0,0,0,41,37.6v64.734a3.786,3.786,0,0,0,.849,2.747,3.786,3.786,0,0,0,2.747.85H60.08a3.08,3.08,0,0,0,3.6-3.6V85.748H75.165c9.015,0,15.267-1.815,18.581-5.395s5-8.319,5-14.086V53.48c0-5.767-1.681-10.505-5-14.085S84.181,34,75.165,34ZM72.468,67.766H63.477V52.681h8.991c1.922,0,3.2.5,3.8,1.5a6.5,6.5,0,0,1,.9,3.4V62.87a6.5,6.5,0,0,1-.9,3.4C75.668,67.261,74.39,67.766,72.468,67.766Z" transform="translate(-1 -0.5)" fill="#fff"/>
  </g>
</svg>
